# xmcd
#
# Track frame offsets:
# 150
# 18194
# 32841
# 52058
# 64844
# 82138
# 99639
# 113994
# 131147
# 145598
# 161727
# 175584
# 191305
# 205152
#
# Disc length: 2931 seconds
#
#
# Revision: 0
# Processed by: cddbd v1.5.2PL0 Copyright (c) Steve Scherf et al.
# Submitted via: FreeRIP 2.945 
#
DISCID=c20b710e
DTITLE=JOÃO MARCIO and FABIANO - QUERO FALAR DE AMOR
DYEAR=1900
DGENRE=SERTANEJO
TTITLE0=Quero Falar De Amor
TTITLE1=A Galera Do Chapéu
TTITLE2=Bem Simplesinho
TTITLE3=Pinga De Goela Abaixo
TTITLE4=Amor De Violeiro
TTITLE5=Furacão
TTITLE6=Machuca Eu
TTITLE7=Não Sei Mais O Que Fazer
TTITLE8=Chuvisquinho De paixão
TTITLE9=Temimoso Coração
TTITLE10=Regadeira
TTITLE11=Nóis Enrola, Mais Não Casa
TTITLE12=Um Amor De Verdade
TTITLE13=Ira
EXTD=
EXTT0=
EXTT1=
EXTT2=
EXTT3=
EXTT4=
EXTT5=
EXTT6=
EXTT7=
EXTT8=
EXTT9=
EXTT10=
EXTT11=
EXTT12=
EXTT13=
PLAYORDER=
